<?xml version="1.0" standalone="no"?><!DOCTYPE svg PUBLIC "-//W3C//DTD SVG 1.1//EN" "http://www.w3.org/Graphics/SVG/1.1/DTD/svg11.dtd"><svg t="1495965139825" class="icon" style="" viewBox="0 0 1024 1024" version="1.1" xmlns="http://www.w3.org/2000/svg" p-id="2661" xmlns:xlink="http://www.w3.org/1999/xlink" width="16" height="16"><defs><style type="text/css"></style></defs><path d="M138.367883 747.33689l743.16794 0c41.127699 0 74.317613 33.19196 74.317613 74.316589 0 41.125653-33.189913 74.316589-74.317613 74.316589L138.367883 895.970068c-41.125653 0-74.316589-33.190937-74.316589-74.316589C64.052317 780.527826 97.24223 747.33689 138.367883 747.33689zM881.535823 276.664134 138.367883 276.664134c-41.125653 0-74.316589-33.190937-74.316589-74.316589 0-41.126676 33.190937-74.317613 74.316589-74.317613l743.16794 0c41.127699 0 74.317613 33.190937 74.317613 74.317613C955.853435 243.473197 922.663522 276.664134 881.535823 276.664134zM881.535823 598.703711 138.367883 598.703711c-41.125653 0-74.316589-33.190937-74.316589-74.317613 0-41.125653 33.190937-74.316589 74.316589-74.316589l743.16794 0c41.127699 0 74.317613 33.190937 74.317613 74.316589C955.853435 565.512774 922.663522 598.703711 881.535823 598.703711z" p-id="2662" fill="#1afa29"></path></svg>