<?xml version="1.0" standalone="no"?><!DOCTYPE svg PUBLIC "-//W3C//DTD SVG 1.1//EN" "http://www.w3.org/Graphics/SVG/1.1/DTD/svg11.dtd"><svg t="1496415292093" class="icon" style="" viewBox="0 0 1024 1024" version="1.1" xmlns="http://www.w3.org/2000/svg" p-id="1746" xmlns:xlink="http://www.w3.org/1999/xlink" width="16" height="16"><defs><style type="text/css"></style></defs><path d="M771.159 371.715 699.501 309.296 817 174.4 888.672 236.822Z" p-id="1747" fill="#d81e06"></path><path d="M548.458 166.112l0-54.417 127.873 0L676.331 67.166c0-36.529-29.562-66.096-66.095-66.096L411.972 1.07c-36.534 0-66.104 29.566-66.104 66.096l0 44.529 127.873 0 0 54.417C251.952 182.991 81.508 368.299 81.508 594.458c0 237.251 192.336 429.592 429.592 429.592s429.592-192.341 429.592-429.592C940.691 368.299 770.255 182.991 548.458 166.112zM519.646 912.057c-172.987 0-313.228-140.236-313.228-313.228 0-172.993 140.24-313.226 313.228-313.226 172.995 0 313.229 140.233 313.229 313.226C832.875 771.82 692.641 912.057 519.646 912.057z" p-id="1748" fill="#d81e06"></path><path d="M478.505 552.951c-1.904 27.2 12.858 39.081 32.913 39.081 20.063 0 34.851-11.881 32.914-39.081l-35.357-247.628L478.505 552.951z" p-id="1749" fill="#d81e06"></path><path d="M540.255 571.338c-25.05-16.766-44.555-9.129-55.571 10.111-11.02 19.247-7.744 39.96 19.415 53.04l256.984 102.09L540.255 571.338z" p-id="1750" fill="#d81e06"></path></svg>