<?xml version="1.0" standalone="no"?><!DOCTYPE svg PUBLIC "-//W3C//DTD SVG 1.1//EN" "http://www.w3.org/Graphics/SVG/1.1/DTD/svg11.dtd"><svg t="1495966869696" class="icon" style="" viewBox="0 0 2458 1024" version="1.1" xmlns="http://www.w3.org/2000/svg" p-id="4474" xmlns:xlink="http://www.w3.org/1999/xlink" width="153.625" height="64"><defs><style type="text/css"></style></defs><path d="M370.346667 576.284444c0-7.253333-4.408889-14.506667-10.097778-17.351111l-164.835556-95.431111c-2.844444-1.422222-5.831111-2.844444-8.675556-2.844444l-1.422222 0c-2.844444 0-5.831111 1.422222-8.675556 2.844444L10.097778 558.933333c-5.831111 2.844444-10.097778 10.097778-10.097778 17.351111l0 256c0 2.844444 1.422222 7.253333 4.408889 8.675556s7.253333 1.422222 10.097778 0l98.417778-56.462222c5.831111-4.408889 10.097778-10.097778 10.097778-17.351111l0-120.035556c0-7.253333 4.408889-13.084444 10.097778-17.351111l41.955556-24.604444c2.844444-1.422222 7.253333-2.844444 10.097778-2.844444 2.844444 0 7.253333 1.422222 10.097778 2.844444l41.955556 24.604444c5.831111 2.844444 10.097778 10.097778 10.097778 17.351111l0 120.035556c0 7.253333 4.408889 13.084444 10.097778 17.351111l98.417778 56.462222c2.844444 1.422222 7.253333 1.422222 10.097778 0 2.844444-1.422222 4.408889-4.408889 4.408889-8.675556L370.346667 576.284444z" p-id="4475" fill="#d81e06"></path><path d="M1251.271111 224.853333c-2.844444-1.422222-7.253333-1.422222-10.097778 0s-4.408889 4.408889-4.408889 8.675556l0 253.155556c0 2.844444-1.422222 4.408889-2.844444 5.831111-1.422222 1.422222-4.408889 1.422222-7.253333 0L1184.711111 469.333333c-5.831111-2.844444-14.506667-2.844444-20.195556 0l-164.835556 95.431111c-5.831111 2.844444-10.097778 10.097778-10.097778 17.351111l0 191.004444c0 7.253333 4.408889 13.084444 10.097778 17.351111l164.835556 95.431111c5.831111 2.844444 14.506667 2.844444 20.195556 0l164.835556-95.431111c5.831111-2.844444 10.097778-10.097778 10.097778-17.351111L1359.644444 297.102222c0-7.253333-4.408889-14.506667-10.097778-17.351111L1251.271111 224.853333zM1235.342222 709.404444c0 1.422222-1.422222 2.844444-2.844444 4.408889l-56.462222 33.28c-1.422222 1.422222-2.844444 1.422222-4.408889 0l-56.462222-33.28c-1.422222-1.422222-2.844444-2.844444-2.844444-4.408889L1112.32 644.266667c0-1.422222 1.422222-2.844444 2.844444-4.408889l56.462222-33.28c1.422222-1.422222 2.844444-1.422222 4.408889 0l56.462222 33.28c1.422222 1.422222 2.844444 2.844444 2.844444 4.408889L1235.342222 709.404444z" p-id="4476" fill="#d81e06"></path><path d="M1841.351111 641.422222c5.831111-2.844444 10.097778-10.097778 10.097778-17.351111l0-46.222222c0-7.253333-4.408889-13.084444-10.097778-17.351111l-163.413333-94.008889c-5.831111-2.844444-14.506667-2.844444-20.195556 0l-164.835556 95.431111c-5.831111 2.844444-10.097778 10.097778-10.097778 17.351111l0 191.004444c0 7.253333 4.408889 14.506667 10.097778 17.351111l163.413333 94.008889c5.831111 2.844444 13.084444 2.844444 20.195556 0l99.84-54.897778c2.844444-1.422222 5.831111-4.408889 5.831111-8.675556 0-2.844444-1.422222-7.253333-4.408889-8.675556l-166.4-95.431111c-2.844444-1.422222-4.408889-5.831111-4.408889-8.675556L1606.968889 645.688889c0-2.844444 1.422222-7.253333 4.408889-8.675556l52.053333-30.435556c2.844444-1.422222 7.253333-1.422222 10.097778 0l52.053333 30.435556c2.844444 1.422222 4.408889 5.831111 4.408889 8.675556l0 46.222222c0 2.844444 1.422222 7.253333 4.408889 8.675556s7.253333 1.422222 10.097778 0L1841.351111 641.422222z" p-id="4477" fill="#d81e06"></path><path d="M669.724444 464.924444c5.831111-2.844444 14.506667-2.844444 20.195556 0L854.897778 560.355556c5.831111 2.844444 10.097778 10.097778 10.097778 17.351111l0 191.004444c0 7.253333-4.408889 13.084444-10.097778 17.351111l-164.835556 95.431111c-5.831111 2.844444-14.506667 2.844444-20.195556 0L504.888889 786.062222c-5.831111-2.844444-10.097778-10.097778-10.097778-17.351111L494.791111 577.706667c0-7.253333 4.408889-13.084444 10.097778-17.351111L669.724444 464.924444z" p-id="4478" fill="#d81e06"></path><path d="M2162.488889 882.915556c-5.831111 0-11.52-1.422222-15.928889-4.408889l-52.053333-30.435556c-7.253333-4.408889-4.408889-5.831111-1.422222-7.253333 10.097778-2.844444 13.084444-4.408889 23.182222-10.097778 1.422222 0 2.844444 0 4.408889 0l40.533333 23.182222c1.422222 1.422222 2.844444 1.422222 4.408889 0l156.16-89.742222c1.422222-1.422222 2.844444-2.844444 2.844444-4.408889L2324.622222 582.115556c0-1.422222-1.422222-2.844444-2.844444-4.408889l-156.16-89.742222c-1.422222-1.422222-2.844444-1.422222-4.408889 0l-156.16 89.742222c-1.422222 1.422222-2.844444 2.844444-2.844444 4.408889l0 179.342222c0 1.422222 1.422222 2.844444 2.844444 4.408889l41.955556 24.604444c23.182222 11.52 37.546667-1.422222 37.546667-15.928889L2084.551111 596.622222c0-2.844444 1.422222-4.408889 4.408889-4.408889l20.195556 0c2.844444 0 4.408889 1.422222 4.408889 4.408889l0 177.92c0 30.435556-17.351111 49.208889-46.222222 49.208889-8.675556 0-15.928889 0-36.124444-10.097778l-40.533333-23.182222c-10.097778-5.831111-15.928889-17.351111-15.928889-28.871111L1974.755556 582.115556c0-11.52 5.831111-23.182222 15.928889-28.871111l156.16-89.742222c10.097778-5.831111 23.182222-5.831111 33.28 0l156.16 89.742222c10.097778 5.831111 15.928889 17.351111 15.928889 28.871111l0 179.342222c0 11.52-5.831111 23.182222-15.928889 28.871111l-156.16 89.742222C2172.586667 881.493333 2168.32 882.915556 2162.488889 882.915556z" p-id="4479" fill="#d81e06"></path><path d="M2210.275556 760.035556c-67.982222 0-82.488889-31.857778-82.488889-57.884444 0-2.844444 1.422222-4.408889 4.408889-4.408889l20.195556 0c2.844444 0 4.408889 1.422222 4.408889 4.408889 2.844444 20.195556 11.52 30.435556 53.475556 30.435556 33.28 0 46.222222-7.253333 46.222222-24.604444 0-10.097778-4.408889-17.351111-54.897778-23.182222-41.955556-4.408889-69.404444-13.084444-69.404444-47.786667 0-31.857778 26.026667-50.631111 70.826667-50.631111 49.208889 0 75.235556 17.351111 78.08 54.897778 0 1.422222 0 2.844444-1.422222 2.844444-1.422222 1.422222-1.422222 1.422222-2.844444 1.422222l-20.195556 0c-1.422222 0-4.408889-1.422222-4.408889-2.844444-4.408889-21.76-15.928889-28.871111-49.208889-28.871111-36.124444 0-40.533333 13.084444-40.533333 21.76 0 11.52 4.408889 14.506667 53.475556 21.76 47.786667 5.831111 70.826667 15.928889 70.826667 49.208889C2286.933333 739.84 2259.484444 760.035556 2210.275556 760.035556z" p-id="4480" fill="#d81e06"></path><path d="M1664.853333 632.746667c1.422222 0 2.844444 0 4.408889 0l31.857778 18.773333c1.422222 0 1.422222 1.422222 1.422222 2.844444l0 36.124444c0 1.422222-1.422222 2.844444-1.422222 2.844444l-31.857778 18.773333c-1.422222 0-2.844444 0-4.408889 0l-31.857778-18.773333c-1.422222 0-1.422222-1.422222-1.422222-2.844444l0-36.124444c0-1.422222 1.422222-2.844444 1.422222-2.844444L1664.853333 632.746667z" p-id="4481" fill="#d81e06"></path><path d="M2457.6 511.288889c0 15.928889-13.084444 30.435556-30.435556 30.435556-15.928889 0-30.435556-13.084444-30.435556-30.435556 0-17.351111 14.506667-30.435556 30.435556-30.435556C2444.515556 482.275556 2457.6 495.36 2457.6 511.288889zM2402.702222 511.288889c0 14.506667 11.52 24.604444 24.604444 24.604444 14.506667 0 24.604444-11.52 24.604444-24.604444 0-14.506667-11.52-24.604444-24.604444-24.604444C2414.222222 486.684444 2402.702222 498.204444 2402.702222 511.288889zM2417.066667 495.36l11.52 0c4.408889 0 11.52 0 11.52 8.675556 0 5.831111-4.408889 7.253333-5.831111 8.675556 4.408889 0 4.408889 2.844444 5.831111 7.253333 0 2.844444 1.422222 7.253333 1.422222 8.675556l-7.253333 0c0-1.422222-1.422222-10.097778-1.422222-10.097778 0-1.422222-1.422222-2.844444-2.844444-2.844444l-5.831111 0 0 13.084444-7.253333 0L2417.066667 495.36 2417.066667 495.36zM2422.897778 509.724444l5.831111 0c4.408889 0 5.831111-2.844444 5.831111-4.408889 0-4.408889-2.844444-4.408889-4.408889-4.408889l-5.831111 0 0 8.675556L2422.897778 509.582222z" p-id="4482" fill="#d81e06"></path></svg>