<?xml version="1.0" standalone="no"?><!DOCTYPE svg PUBLIC "-//W3C//DTD SVG 1.1//EN" "http://www.w3.org/Graphics/SVG/1.1/DTD/svg11.dtd"><svg t="1496551974525" class="icon" style="" viewBox="0 0 1024 1024" version="1.1" xmlns="http://www.w3.org/2000/svg" p-id="1583" xmlns:xlink="http://www.w3.org/1999/xlink" width="16" height="16"><defs><style type="text/css"></style></defs><path d="M908.145 943.852c-3.418 3.832-8.292 6.017-13.419 6.017h-753.231c-5.126 0-10.010-2.186-13.428-6.017-3.409-3.822-5.028-8.922-4.451-14.013l71.744-627.694c1.034-9.083 8.724-15.946 17.871-15.946h62.122c9.938 0 17.988 8.050 17.988 17.988s-8.050 17.988-17.988 17.988h-46.076l-67.625 591.717h712.911l-67.625-591.717h-56.347c-9.929 0-17.988-8.050-17.988-17.988s8.059-17.988 17.988-17.988h72.392c9.147 0 16.837 6.863 17.88 15.946l71.736 627.694c0.576 5.091-1.043 10.19-4.451 14.013z" p-id="1584" fill="#1afa29"></path><path d="M625.116 304.188c0 9.938-8.050 17.988-17.988 17.988h-174.86c-9.938 0-17.988-8.050-17.988-17.988s8.050-17.988 17.988-17.988h174.86c9.938 0 17.988 8.050 17.988 17.988z" p-id="1585" fill="#1afa29"></path><path d="M715.379 393.857c0 19.805-16.054 35.867-35.867 35.867-19.805 0-35.867-16.063-35.867-35.867 0-13.248 7.186-24.823 17.88-31.028v-112.442c0-79.083-64.333-143.417-143.416-143.417s-143.416 64.333-143.416 143.417v112.442c10.694 6.206 17.88 17.782 17.88 31.028 0 19.805-16.063 35.867-35.867 35.867-19.813 0-35.867-16.063-35.867-35.867 0-13.248 7.186-24.823 17.88-31.028v-112.442c0-98.915 80.477-179.393 179.393-179.393s179.393 80.477 179.393 179.392v112.442c10.694 6.206 17.88 17.782 17.88 31.028z" p-id="1586" fill="#1afa29"></path></svg>