<?xml version="1.0" standalone="no"?><!DOCTYPE svg PUBLIC "-//W3C//DTD SVG 1.1//EN" "http://www.w3.org/Graphics/SVG/1.1/DTD/svg11.dtd"><svg t="1495965685934" class="icon" style="" viewBox="0 0 1024 1024" version="1.1" xmlns="http://www.w3.org/2000/svg" p-id="4056" xmlns:xlink="http://www.w3.org/1999/xlink" width="16" height="16"><defs><style type="text/css"></style></defs><path d="M329.142852 786.285714l0-109.714286q0-8.009143-5.156571-13.129143t-13.129143-5.156571l-182.857143 0q-8.009143 0-13.129143 5.156571t-5.156571 13.129143l0 109.714286q0 8.009143 5.156571 13.129143t13.129143 5.156571l182.857143 0q8.009143 0 13.129143-5.156571t5.156571-13.129143zM329.142852 566.857143l0-109.714286q0-8.009143-5.156571-13.129143t-13.129143-5.156571l-182.857143 0q-8.009143 0-13.129143 5.156571t-5.156571 13.129143l0 109.714286q0 8.009143 5.156571 13.129143t13.129143 5.156571l182.857143 0q8.009143 0 13.129143-5.156571t5.156571-13.129143zM621.714281 786.285714l0-109.714286q0-8.009143-5.156571-13.129143t-13.129143-5.156571l-182.857143 0q-8.009143 0-13.129143 5.156571t-5.156571 13.129143l0 109.714286q0 8.009143 5.156571 13.129143t13.129143 5.156571l182.857143 0q8.009143 0 13.129143-5.156571t5.156571-13.129143zM329.142852 347.428571l0-109.714286q0-8.009143-5.156571-13.129143t-13.129143-5.156571l-182.857143 0q-8.009143 0-13.129143 5.156571t-5.156571 13.129143l0 109.714286q0 8.009143 5.156571 13.129143t13.129143 5.156571l182.857143 0q8.009143 0 13.129143-5.156571t5.156571-13.129143zM621.714281 566.857143l0-109.714286q0-8.009143-5.156571-13.129143t-13.129143-5.156571l-182.857143 0q-8.009143 0-13.129143 5.156571t-5.156571 13.129143l0 109.714286q0 8.009143 5.156571 13.129143t13.129143 5.156571l182.857143 0q8.009143 0 13.129143-5.156571t5.156571-13.129143zM914.285709 786.285714l0-109.714286q0-8.009143-5.156571-13.129143t-13.129143-5.156571l-182.857143 0q-8.009143 0-13.129143 5.156571t-5.156571 13.129143l0 109.714286q0 8.009143 5.156571 13.129143t13.129143 5.156571l182.857143 0q8.009143 0 13.129143-5.156571t5.156571-13.129143zM621.714281 347.428571l0-109.714286q0-8.009143-5.156571-13.129143t-13.129143-5.156571l-182.857143 0q-8.009143 0-13.129143 5.156571t-5.156571 13.129143l0 109.714286q0 8.009143 5.156571 13.129143t13.129143 5.156571l182.857143 0q8.009143 0 13.129143-5.156571t5.156571-13.129143zM914.285709 566.857143l0-109.714286q0-8.009143-5.156571-13.129143t-13.129143-5.156571l-182.857143 0q-8.009143 0-13.129143 5.156571t-5.156571 13.129143l0 109.714286q0 8.009143 5.156571 13.129143t13.129143 5.156571l182.857143 0q8.009143 0 13.129143-5.156571t5.156571-13.129143zM914.285709 347.428571l0-109.714286q0-8.009143-5.156571-13.129143t-13.129143-5.156571l-182.857143 0q-8.009143 0-13.129143 5.156571t-5.156571 13.129143l0 109.714286q0 8.009143 5.156571 13.129143t13.129143 5.156571l182.857143 0q8.009143 0 13.129143-5.156571t5.156571-13.129143zM987.428566 164.571429l0 621.714286q0 37.705143-26.843429 64.585143t-64.585143 26.843429l-768 0q-37.705143 0-64.585143-26.843429t-26.843429-64.585143l0-621.714286q0-37.705143 26.843429-64.585143t64.585143-26.843429l768 0q37.705143 0 64.585143 26.843429t26.843429 64.585143z" p-id="4057" fill="#1afa29"></path></svg>